<svg xmlns="http://www.w3.org/2000/svg" viewBox="0 0 48 48">
  <path fill="#EA4335" d="M24 9.5c3.54 0 6.71 1.23 9.21 3.24l6.85-6.85C35.9 2.34 30.47 0 24 0 14.62 0 6.51 5.38 2.56 13.22l7.98 6.19C12.43 13.73 17.74 9.5 24 9.5z"></path>
  <path fill="#4285F4" d="M46.5 24.5c0-1.64-.15-3.21-.43-4.74H24v9h12.7c-.55 2.97-2.23 5.48-4.74 7.18l7.73 6c4.52-4.18 7.81-10.34 7.81-17.44z"></path>
  <path fill="#FBBC05" d="M10.53 28.59c-.48-1.45-.76-2.99-.76-4.59s.27-3.14.76-4.59l-7.98-6.19C.92 16.23 0 20.03 0 24c0 3.97.92 7.77 2.56 11.22l7.97-6.63z"></path>
  <path fill="#34A853" d="M24 48c6.48 0 11.93-2.14 15.9-5.81l-7.73-6c-2.15 1.45-4.92 2.3-8.17 2.3-6.26 0-11.57-4.23-13.47-9.91l-7.98 6.19C6.51 42.62 14.62 48 24 48z"></path>
</svg>
